<svg data-v-fde0c5aa="" xmlns="http://www.w3.org/2000/svg" viewBox="0 0 300 300" class="iconLeft"><!----><defs data-v-fde0c5aa=""><!----></defs><rect data-v-fde0c5aa="" fill="#0B4436" x="0" y="0" width="300px" height="300px" class="logo-background-square"></rect><defs data-v-fde0c5aa=""><!----></defs><g data-v-fde0c5aa="" id="ba55c9ea-73da-4ad8-b0b5-f22f38a953f5" fill="#FFFFFF" transform="matrix(2.060891154441838,0,0,2.060891154441838,89.79101201540483,131.28710749219215)"><path d="M3.71 13.01L3.71 13.01Q2.24 13.01 1.46 12.50L1.46 12.50L1.46 12.50Q0.69 11.98 0.69 10.99L0.69 10.99L0.69 10.99Q0.69 10.49 1.03 10.16L1.03 10.16L1.03 10.16Q1.37 9.83 1.92 9.83L1.92 9.83L1.92 9.83Q2.24 9.84 2.41 9.99L2.41 9.99L2.41 9.99Q2.58 10.14 2.58 10.26L2.58 10.26L2.58 10.26Q2.58 10.28 2.44 10.36L2.44 10.36L2.44 10.36Q2.30 10.44 2.18 10.61L2.18 10.61L2.18 10.61Q2.07 10.78 2.07 11.07L2.07 11.07L2.07 11.07Q2.07 11.73 2.47 12.09L2.47 12.09L2.47 12.09Q2.87 12.45 3.71 12.45L3.71 12.45L3.71 12.45Q4.28 12.45 4.72 12.22L4.72 12.22L4.72 12.22Q5.15 12.00 5.38 11.63L5.38 11.63L5.38 11.63Q5.61 11.26 5.61 10.85L5.61 10.85L5.61 10.85Q5.61 10.35 5.33 9.98L5.33 9.98L5.33 9.98Q5.04 9.62 4.62 9.37L4.62 9.37L4.62 9.37Q4.20 9.13 3.47 8.81L3.47 8.81L3.47 8.81Q2.63 8.43 2.11 8.12L2.11 8.12L2.11 8.12Q1.60 7.81 1.23 7.30L1.23 7.30L1.23 7.30Q0.87 6.79 0.87 6.03L0.87 6.03L0.87 6.03Q0.87 4.82 1.70 4.21L1.70 4.21L1.70 4.21Q2.53 3.61 3.89 3.61L3.89 3.61L3.89 3.61Q4.96 3.61 5.75 4.06L5.75 4.06L5.75 4.06Q6.54 4.51 6.54 5.38L6.54 5.38L6.54 5.38Q6.54 5.88 6.20 6.21L6.20 6.21L6.20 6.21Q5.85 6.54 5.31 6.54L5.31 6.54L5.31 6.54Q4.98 6.52 4.82 6.38L4.82 6.38L4.82 6.38Q4.65 6.23 4.65 6.10L4.65 6.10L4.65 6.10Q4.65 6.09 4.84 6.01L4.84 6.01L4.84 6.01Q5.03 5.92 5.17 5.75L5.17 5.75L5.17 5.75Q5.32 5.59 5.32 5.29L5.32 5.29L5.32 5.29Q5.32 4.77 4.92 4.48L4.92 4.48L4.92 4.48Q4.52 4.19 3.91 4.19L3.91 4.19L3.91 4.19Q3.05 4.19 2.61 4.59L2.61 4.59L2.61 4.59Q2.17 4.98 2.17 5.57L2.17 5.57L2.17 5.57Q2.17 6.06 2.44 6.39L2.44 6.39L2.44 6.39Q2.70 6.72 3.29 7.04L3.29 7.04L3.29 7.04Q3.77 7.29 4.33 7.55L4.33 7.55L4.33 7.55Q5.22 7.95 5.75 8.29L5.75 8.29L5.75 8.29Q6.27 8.62 6.63 9.17L6.63 9.17L6.63 9.17Q6.99 9.72 6.99 10.53L6.99 10.53L6.99 10.53Q6.99 11.23 6.54 11.80L6.54 11.80L6.54 11.80Q6.10 12.36 5.36 12.68L5.36 12.68L5.36 12.68Q4.61 13.01 3.71 13.01L3.71 13.01ZM10.65 12.96L10.65 12.96Q9.97 12.96 9.48 12.46L9.48 12.46L9.48 12.46Q8.99 11.96 8.99 11.02L8.99 11.02L8.99 6.90L8.18 6.93L8.18 6.93Q8.09 6.93 8.04 6.85L8.04 6.85L8.04 6.85Q7.98 6.78 7.98 6.68L7.98 6.68L7.98 6.68Q7.98 6.55 8.03 6.46L8.03 6.46L8.03 6.46Q8.08 6.37 8.18 6.36L8.18 6.36L8.18 6.36Q8.67 6.26 8.94 6.04L8.94 6.04L8.94 6.04Q9.21 5.82 9.34 5.57L9.34 5.57L9.34 5.57Q9.46 5.31 9.65 4.77L9.65 4.77L9.65 4.77Q9.72 4.59 9.95 4.59L9.95 4.59L9.95 4.59Q10.05 4.59 10.15 4.64L10.15 4.64L10.15 4.64Q10.25 4.69 10.25 4.79L10.25 4.79L10.15 6.38L11.79 6.29L11.82 6.29L11.82 6.29Q12.00 6.29 12.00 6.55L12.00 6.55L12.00 6.55Q12.00 6.71 11.95 6.84L11.95 6.84L11.95 6.84Q11.90 6.97 11.83 6.97L11.83 6.97L10.26 6.93L10.26 11.19L10.26 11.19Q10.26 11.65 10.45 11.96L10.45 11.96L10.45 11.96Q10.64 12.26 11.07 12.26L11.07 12.26L11.07 12.26Q11.51 12.26 11.84 12.11L11.84 12.11L11.84 12.11Q12.03 12.04 12.07 12.04L12.07 12.04L12.07 12.04Q12.17 12.04 12.22 12.12L12.22 12.12L12.22 12.12Q12.28 12.19 12.33 12.32L12.33 12.32L12.33 12.32Q12.35 12.35 12.35 12.39L12.35 12.39L12.35 12.39Q12.35 12.45 12.26 12.52L12.26 12.52L12.26 12.52Q11.86 12.78 11.50 12.87L11.50 12.87L11.50 12.87Q11.14 12.96 10.65 12.96L10.65 12.96ZM16.79 12.89L16.79 12.89Q15.74 12.89 15.00 12.45L15.00 12.45L15.00 12.45Q14.27 12.00 13.89 11.23L13.89 11.23L13.89 11.23Q13.51 10.46 13.51 9.52L13.51 9.52L13.51 9.52Q13.51 8.69 13.89 7.93L13.89 7.93L13.89 7.93Q14.28 7.17 14.99 6.69L14.99 6.69L14.99 6.69Q15.71 6.22 16.63 6.22L16.63 6.22L16.63 6.22Q17.88 6.22 18.55 6.85L18.55 6.85L18.55 6.85Q19.22 7.49 19.32 8.57L19.32 8.57L19.32 8.57Q19.32 9.03 19.07 9.20L19.07 9.20L19.07 9.20Q18.82 9.37 18.34 9.37L18.34 9.37L14.94 9.37L14.94 9.37Q14.94 10.67 15.48 11.43L15.48 11.43L15.48 11.43Q16.02 12.19 17.15 12.19L17.15 12.19L17.15 12.19Q17.75 12.19 18.17 11.94L18.17 11.94L18.17 11.94Q18.59 11.68 18.97 11.06L18.97 11.06L18.97 11.06Q19.04 10.99 19.11 10.99L19.11 10.99L19.11 10.99Q19.21 10.99 19.28 11.05L19.28 11.05L19.28 11.05Q19.42 11.13 19.42 11.30L19.42 11.30L19.42 11.30Q19.42 11.38 19.39 11.42L19.39 11.42L19.39 11.42Q18.96 12.12 18.29 12.51L18.29 12.51L18.29 12.51Q17.63 12.89 16.79 12.89L16.79 12.89ZM14.94 8.83L17.22 8.83L17.22 8.83Q17.93 8.83 17.98 8.25L17.98 8.25L17.98 8.25Q17.98 7.60 17.63 7.15L17.63 7.15L17.63 7.15Q17.28 6.71 16.63 6.71L16.63 6.71L16.63 6.71Q15.92 6.71 15.46 7.27L15.46 7.27L15.46 7.27Q14.99 7.84 14.94 8.83L14.94 8.83ZM20.51 15.64L20.51 15.64Q20.41 15.64 20.35 15.55L20.35 15.55L20.35 15.55Q20.29 15.47 20.29 15.36L20.29 15.36L20.29 15.36Q20.30 15.18 20.36 15.14L20.36 15.14L20.36 15.14Q20.43 15.11 20.61 15.11L20.61 15.11L20.61 15.11Q20.96 15.11 21.11 14.98L21.11 14.98L21.11 14.98Q21.27 14.85 21.30 14.67L21.30 14.67L21.30 14.67Q21.34 14.49 21.34 14.15L21.34 14.15L21.34 8.08L21.34 8.08Q21.34 7.71 21.31 7.55L21.31 7.55L21.31 7.55Q21.29 7.38 21.14 7.25L21.14 7.25L21.14 7.25Q20.99 7.13 20.62 7.13L20.62 7.13L20.62 7.13Q20.45 7.13 20.37 7.08L20.37 7.08L20.37 7.08Q20.29 7.03 20.29 6.85L20.29 6.85L20.29 6.85Q20.29 6.76 20.34 6.69L20.34 6.69L20.34 6.69Q20.40 6.61 20.51 6.59L20.51 6.59L20.51 6.59Q21.42 6.45 22.01 6.23L22.01 6.23L22.01 6.23Q22.25 6.16 22.33 6.15L22.33 6.15L22.37 6.15L22.37 6.15Q22.60 6.15 22.60 6.41L22.60 6.41L22.60 7.08L22.64 7.08L22.64 7.08Q23.04 6.71 23.59 6.46L23.59 6.46L23.59 6.46Q24.14 6.22 24.63 6.22L24.63 6.22L24.63 6.22Q25.47 6.22 26.13 6.64L26.13 6.64L26.13 6.64Q26.80 7.06 27.17 7.82L27.17 7.82L27.17 7.82Q27.55 8.58 27.55 9.55L27.55 9.55L27.55 9.55Q27.55 10.53 27.10 11.29L27.10 11.29L27.10 11.29Q26.66 12.05 25.91 12.47L25.91 12.47L25.91 12.47Q25.17 12.89 24.35 12.89L24.35 12.89L24.35 12.89Q23.77 12.89 23.38 12.78L23.38 12.78L23.38 12.78Q22.99 12.66 22.67 12.46L22.67 12.46L22.61 12.46L22.61 14.15L22.61 14.15Q22.61 14.49 22.64 14.67L22.64 14.67L22.64 14.67Q22.68 14.85 22.83 14.98L22.83 14.98L22.83 14.98Q22.99 15.11 23.34 15.11L23.34 15.11L23.42 15.11L23.42 15.11Q23.53 15.11 23.59 15.15L23.59 15.15L23.59 15.15Q23.65 15.19 23.66 15.36L23.66 15.36L23.66 15.36Q23.66 15.47 23.60 15.55L23.60 15.55L23.60 15.55Q23.55 15.64 23.44 15.64L23.44 15.64L23.44 15.64Q22.62 15.60 21.97 15.60L21.97 15.60L21.97 15.60Q21.34 15.60 20.51 15.64L20.51 15.64ZM24.23 12.42L24.23 12.42Q25.21 12.42 25.67 11.55L25.67 11.55L25.67 11.55Q26.12 10.68 26.12 9.59L26.12 9.59L26.12 9.59Q26.12 8.50 25.62 7.71L25.62 7.71L25.62 7.71Q25.12 6.92 24.12 6.92L24.12 6.92L24.12 6.92Q23.63 6.92 23.29 7.11L23.29 7.11L23.29 7.11Q22.95 7.29 22.61 7.64L22.61 7.64L22.61 11.40L22.61 11.40Q22.78 11.82 23.20 12.12L23.20 12.12L23.20 12.12Q23.63 12.42 24.23 12.42L24.23 12.42ZM28.98 12.77L28.98 12.77Q28.87 12.77 28.80 12.68L28.80 12.68L28.80 12.68Q28.74 12.59 28.74 12.46L28.74 12.46L28.74 12.46Q28.76 12.25 28.83 12.21L28.83 12.21L28.83 12.21Q28.90 12.17 29.09 12.17L29.09 12.17L29.09 12.17Q29.50 12.17 29.69 12.02L29.69 12.02L29.69 12.02Q29.89 11.87 29.94 11.66L29.94 11.66L29.94 11.66Q29.99 11.44 30.00 11.09L30.00 11.09L30.00 5.53L30.00 5.53Q29.99 5.18 29.94 4.96L29.94 4.96L29.94 4.96Q29.89 4.75 29.69 4.60L29.69 4.60L29.69 4.60Q29.50 4.45 29.09 4.45L29.09 4.45L29.01 4.45L29.01 4.45Q28.87 4.45 28.81 4.40L28.81 4.40L28.81 4.40Q28.76 4.35 28.74 4.16L28.74 4.16L28.74 4.16Q28.74 4.03 28.80 3.94L28.80 3.94L28.80 3.94Q28.87 3.85 28.98 3.85L28.98 3.85L28.98 3.85Q29.90 3.89 30.65 3.89L30.65 3.89L35.04 3.89L35.04 3.89Q35.41 3.89 35.41 4.23L35.41 4.23L35.45 6.19L35.45 6.19Q35.45 6.31 35.32 6.39L35.32 6.39L35.32 6.39Q35.20 6.47 35.07 6.47L35.07 6.47L35.07 6.47Q34.90 6.47 34.78 6.41L34.78 6.41L34.78 6.41Q34.65 6.34 34.64 6.22L34.64 6.22L34.64 6.22Q34.52 5.53 34.39 5.17L34.39 5.17L34.39 5.17Q34.26 4.82 34.00 4.64L34.00 4.64L34.00 4.64Q33.74 4.47 33.26 4.45L33.26 4.45L31.39 4.45L31.39 8.01L33.92 8.01L33.92 8.01Q34.02 8.02 34.08 8.11L34.08 8.11L34.08 8.11Q34.13 8.20 34.13 8.33L34.13 8.33L34.13 8.33Q34.13 8.44 34.08 8.53L34.08 8.53L34.08 8.53Q34.02 8.61 33.92 8.61L33.92 8.61L31.39 8.61L31.39 11.26L31.39 11.26Q31.42 11.55 31.46 11.73L31.46 11.73L31.46 11.73Q31.50 11.90 31.71 12.04L31.71 12.04L31.71 12.04Q31.92 12.18 32.37 12.17L32.37 12.17L33.66 12.17L33.66 12.17Q34.15 12.15 34.40 12.01L34.40 12.01L34.40 12.01Q34.65 11.86 34.80 11.55L34.80 11.55L34.80 11.55Q34.94 11.24 35.15 10.54L35.15 10.54L35.15 10.54Q35.25 10.29 35.63 10.35L35.63 10.35L35.63 10.35Q35.77 10.37 35.88 10.46L35.88 10.46L35.88 10.46Q35.98 10.54 35.97 10.67L35.97 10.67L35.69 12.43L35.69 12.43Q35.64 12.61 35.56 12.67L35.56 12.67L35.56 12.67Q35.48 12.73 35.28 12.73L35.28 12.73L30.66 12.73L30.66 12.73Q29.90 12.73 28.98 12.77L28.98 12.77ZM36.90 12.77L36.90 12.77Q36.81 12.77 36.75 12.68L36.75 12.68L36.75 12.68Q36.69 12.59 36.69 12.49L36.69 12.49L36.69 12.49Q36.71 12.32 36.76 12.28L36.76 12.28L36.76 12.28Q36.82 12.24 36.93 12.24L36.93 12.24L36.93 12.24Q37.24 12.24 37.44 12.15L37.44 12.15L37.44 12.15Q37.63 12.07 37.77 11.93L37.77 11.93L37.77 11.93Q37.91 11.79 38.22 11.41L38.22 11.41L38.22 11.41Q38.57 11.02 39.63 9.70L39.63 9.70L38.04 7.45L38.04 7.45Q37.86 7.21 37.65 7.08L37.65 7.08L37.65 7.08Q37.45 6.94 37.16 6.89L37.16 6.89L37.16 6.89Q37.11 6.87 37.00 6.86L37.00 6.86L37.00 6.86Q36.89 6.85 36.86 6.79L36.86 6.79L36.86 6.79Q36.83 6.73 36.83 6.59L36.83 6.59L36.83 6.59Q36.83 6.43 36.93 6.38L36.93 6.38L36.93 6.38Q37.02 6.34 37.15 6.34L37.15 6.34L37.15 6.34Q37.28 6.33 37.32 6.33L37.32 6.33L37.32 6.33Q38.75 6.26 39.40 7.11L39.40 7.11L39.66 7.50L39.66 7.50Q40.03 8.12 40.46 8.69L40.46 8.69L41.40 7.48L41.40 7.48Q41.64 7.15 41.64 7.03L41.64 7.03L41.64 7.03Q41.64 6.94 41.51 6.92L41.51 6.92L41.51 6.92Q41.38 6.89 41.05 6.87L41.05 6.87L40.96 6.87L40.96 6.87Q40.85 6.87 40.80 6.83L40.80 6.83L40.80 6.83Q40.75 6.79 40.74 6.62L40.74 6.62L40.74 6.62Q40.74 6.52 40.79 6.43L40.79 6.43L40.79 6.43Q40.84 6.34 40.94 6.34L40.94 6.34L40.94 6.34Q41.73 6.38 42.11 6.38L42.11 6.38L42.11 6.38Q42.50 6.38 43.32 6.34L43.32 6.34L43.32 6.34Q43.41 6.34 43.47 6.43L43.47 6.43L43.47 6.43Q43.53 6.52 43.53 6.62L43.53 6.62L43.53 6.62Q43.51 6.78 43.46 6.82L43.46 6.82L43.46 6.82Q43.40 6.86 43.32 6.87L43.32 6.87L43.32 6.87Q43.25 6.87 43.22 6.87L43.22 6.87L43.22 6.87Q42.81 6.89 42.61 7.04L42.61 7.04L42.61 7.04Q42.41 7.18 42 7.70L42 7.70L42 7.70Q41.86 7.85 41.55 8.26L41.55 8.26L41.55 8.26Q41.01 8.95 40.82 9.17L40.82 9.17L40.82 9.17Q41.97 10.65 42.53 11.41L42.53 11.41L42.53 11.41Q42.80 11.79 43.06 12.01L43.06 12.01L43.06 12.01Q43.33 12.24 43.65 12.24L43.65 12.24L43.74 12.24L43.74 12.24Q43.85 12.24 43.90 12.28L43.90 12.28L43.90 12.28Q43.96 12.32 43.97 12.49L43.97 12.49L43.97 12.49Q43.97 12.60 43.91 12.68L43.91 12.68L43.91 12.68Q43.85 12.77 43.75 12.77L43.75 12.77L43.75 12.77Q42.92 12.73 42.41 12.73L42.41 12.73L42.41 12.73Q41.75 12.73 40.92 12.77L40.92 12.77L40.92 12.77Q40.82 12.77 40.76 12.68L40.76 12.68L40.76 12.68Q40.70 12.60 40.70 12.49L40.70 12.49L40.70 12.49Q40.71 12.31 40.78 12.27L40.78 12.27L40.78 12.27Q40.84 12.24 41.02 12.24L41.02 12.24L41.02 12.24Q41.31 12.24 41.31 12.04L41.31 12.04L41.31 12.04Q41.31 11.90 41.12 11.63L41.12 11.63L40.03 10.18L38.82 11.63L38.82 11.63Q38.58 11.94 38.58 12.05L38.58 12.05L38.58 12.05Q38.58 12.15 38.72 12.19L38.72 12.19L38.72 12.19Q38.86 12.24 39.17 12.24L39.17 12.24L39.26 12.24L39.26 12.24Q39.37 12.24 39.42 12.28L39.42 12.28L39.42 12.28Q39.47 12.32 39.48 12.49L39.48 12.49L39.48 12.49Q39.48 12.59 39.43 12.68L39.43 12.68L39.43 12.68Q39.38 12.77 39.28 12.77L39.28 12.77L39.28 12.77Q38.49 12.73 38.11 12.73L38.11 12.73L38.11 12.73Q37.73 12.73 36.90 12.77L36.90 12.77ZM44.58 15.64L44.58 15.64Q44.48 15.64 44.41 15.55L44.41 15.55L44.41 15.55Q44.35 15.47 44.35 15.36L44.35 15.36L44.35 15.36Q44.37 15.18 44.43 15.14L44.43 15.14L44.43 15.14Q44.49 15.11 44.67 15.11L44.67 15.11L44.67 15.11Q45.02 15.11 45.18 14.98L45.18 14.98L45.18 14.98Q45.33 14.85 45.37 14.67L45.37 14.67L45.37 14.67Q45.40 14.49 45.40 14.15L45.40 14.15L45.40 8.08L45.40 8.08Q45.40 7.71 45.38 7.55L45.38 7.55L45.38 7.55Q45.36 7.38 45.21 7.25L45.21 7.25L45.21 7.25Q45.05 7.13 44.69 7.13L44.69 7.13L44.69 7.13Q44.52 7.13 44.44 7.08L44.44 7.08L44.44 7.08Q44.35 7.03 44.35 6.85L44.35 6.85L44.35 6.85Q44.35 6.76 44.41 6.69L44.41 6.69L44.41 6.69Q44.46 6.61 44.58 6.59L44.58 6.59L44.58 6.59Q45.49 6.45 46.07 6.23L46.07 6.23L46.07 6.23Q46.31 6.16 46.40 6.15L46.40 6.15L46.44 6.15L46.44 6.15Q46.66 6.15 46.66 6.41L46.66 6.41L46.66 7.08L46.70 7.08L46.70 7.08Q47.11 6.71 47.66 6.46L47.66 6.46L47.66 6.46Q48.20 6.22 48.69 6.22L48.69 6.22L48.69 6.22Q49.53 6.22 50.20 6.64L50.20 6.64L50.20 6.64Q50.86 7.06 51.24 7.82L51.24 7.82L51.24 7.82Q51.62 8.58 51.62 9.55L51.62 9.55L51.62 9.55Q51.62 10.53 51.17 11.29L51.17 11.29L51.17 11.29Q50.72 12.05 49.98 12.47L49.98 12.47L49.98 12.47Q49.24 12.89 48.41 12.89L48.41 12.89L48.41 12.89Q47.84 12.89 47.45 12.78L47.45 12.78L47.45 12.78Q47.05 12.66 46.73 12.46L46.73 12.46L46.68 12.46L46.68 14.15L46.68 14.15Q46.68 14.49 46.71 14.67L46.71 14.67L46.71 14.67Q46.75 14.85 46.90 14.98L46.90 14.98L46.90 14.98Q47.05 15.11 47.40 15.11L47.40 15.11L47.49 15.11L47.49 15.11Q47.60 15.11 47.66 15.15L47.66 15.15L47.66 15.15Q47.71 15.19 47.73 15.36L47.73 15.36L47.73 15.36Q47.73 15.47 47.67 15.55L47.67 15.55L47.67 15.55Q47.61 15.64 47.50 15.64L47.50 15.64L47.50 15.64Q46.69 15.60 46.03 15.60L46.03 15.60L46.03 15.60Q45.40 15.60 44.58 15.64L44.58 15.64ZM48.30 12.42L48.30 12.42Q49.28 12.42 49.73 11.55L49.73 11.55L49.73 11.55Q50.19 10.68 50.19 9.59L50.19 9.59L50.19 9.59Q50.19 8.50 49.69 7.71L49.69 7.71L49.69 7.71Q49.18 6.92 48.19 6.92L48.19 6.92L48.19 6.92Q47.70 6.92 47.36 7.11L47.36 7.11L47.36 7.11Q47.01 7.29 46.68 7.64L46.68 7.64L46.68 11.40L46.68 11.40Q46.84 11.82 47.27 12.12L47.27 12.12L47.27 12.12Q47.70 12.42 48.30 12.42L48.30 12.42ZM52.75 12.77L52.75 12.77Q52.65 12.77 52.59 12.68L52.59 12.68L52.59 12.68Q52.53 12.60 52.53 12.49L52.53 12.49L52.53 12.49Q52.54 12.31 52.61 12.27L52.61 12.27L52.61 12.27Q52.67 12.24 52.85 12.24L52.85 12.24L52.85 12.24Q53.21 12.24 53.37 12.11L53.37 12.11L53.37 12.11Q53.52 11.98 53.55 11.82L53.55 11.82L53.55 11.82Q53.58 11.65 53.58 11.28L53.58 11.28L53.58 4.45L53.58 4.45Q53.58 4.09 53.56 3.92L53.56 3.92L53.56 3.92Q53.54 3.75 53.38 3.63L53.38 3.63L53.38 3.63Q53.23 3.50 52.86 3.50L52.86 3.50L52.86 3.50Q52.70 3.50 52.61 3.45L52.61 3.45L52.61 3.45Q52.53 3.40 52.53 3.22L52.53 3.22L52.53 3.22Q52.53 3.14 52.58 3.06L52.58 3.06L52.58 3.06Q52.64 2.98 52.75 2.97L52.75 2.97L52.75 2.97Q53.63 2.84 54.26 2.60L54.26 2.60L54.26 2.60Q54.46 2.53 54.59 2.52L54.59 2.52L54.63 2.52L54.63 2.52Q54.85 2.52 54.85 2.79L54.85 2.79L54.85 11.28L54.85 11.28Q54.85 11.65 54.88 11.82L54.88 11.82L54.88 11.82Q54.91 11.98 55.06 12.11L55.06 12.11L55.06 12.11Q55.22 12.24 55.58 12.24L55.58 12.24L55.66 12.24L55.66 12.24Q55.78 12.24 55.83 12.28L55.83 12.28L55.83 12.28Q55.89 12.32 55.90 12.49L55.90 12.49L55.90 12.49Q55.90 12.60 55.85 12.68L55.85 12.68L55.85 12.68Q55.79 12.77 55.68 12.77L55.68 12.77L55.68 12.77Q54.87 12.73 54.21 12.73L54.21 12.73L54.21 12.73Q53.58 12.73 52.75 12.77L52.75 12.77ZM60.05 12.89L60.05 12.89Q59.09 12.89 58.35 12.44L58.35 12.44L58.35 12.44Q57.61 11.98 57.20 11.24L57.20 11.24L57.20 11.24Q56.78 10.49 56.78 9.65L56.78 9.65L56.78 9.65Q56.78 8.60 57.27 7.82L57.27 7.82L57.27 7.82Q57.76 7.04 58.52 6.63L58.52 6.63L58.52 6.63Q59.28 6.22 60.05 6.22L60.05 6.22L60.05 6.22Q61.00 6.22 61.74 6.67L61.74 6.67L61.74 6.67Q62.48 7.13 62.90 7.88L62.90 7.88L62.90 7.88Q63.31 8.62 63.31 9.46L63.31 9.46L63.31 9.46Q63.31 10.51 62.81 11.29L62.81 11.29L62.81 11.29Q62.31 12.07 61.56 12.48L61.56 12.48L61.56 12.48Q60.80 12.89 60.05 12.89L60.05 12.89ZM60.05 12.38L60.05 12.38Q61.00 12.38 61.44 11.56L61.44 11.56L61.44 11.56Q61.88 10.75 61.88 9.46L61.88 9.46L61.88 9.46Q61.88 8.26 61.42 7.50L61.42 7.50L61.42 7.50Q60.97 6.73 60.05 6.73L60.05 6.73L60.05 6.73Q59.08 6.73 58.65 7.53L58.65 7.53L58.65 7.53Q58.21 8.33 58.21 9.62L58.21 9.62L58.21 9.62Q58.21 10.82 58.66 11.60L58.66 11.60L58.66 11.60Q59.11 12.38 60.05 12.38L60.05 12.38ZM64.57 12.77L64.57 12.77Q64.47 12.77 64.41 12.68L64.41 12.68L64.41 12.68Q64.34 12.60 64.34 12.49L64.34 12.49L64.34 12.49Q64.36 12.31 64.43 12.27L64.43 12.27L64.43 12.27Q64.50 12.24 64.68 12.24L64.68 12.24L64.68 12.24Q65.04 12.24 65.20 12.11L65.20 12.11L65.20 12.11Q65.35 11.98 65.37 11.82L65.37 11.82L65.37 11.82Q65.39 11.65 65.39 11.28L65.39 11.28L65.39 8.08L65.39 8.08Q65.39 7.71 65.37 7.55L65.37 7.55L65.37 7.55Q65.35 7.38 65.20 7.25L65.20 7.25L65.20 7.25Q65.04 7.13 64.68 7.13L64.68 7.13L64.68 7.13Q64.51 7.13 64.43 7.08L64.43 7.08L64.43 7.08Q64.34 7.03 64.34 6.85L64.34 6.85L64.34 6.85Q64.34 6.76 64.40 6.69L64.40 6.69L64.40 6.69Q64.46 6.61 64.57 6.59L64.57 6.59L64.57 6.59Q65.48 6.45 66.07 6.23L66.07 6.23L66.07 6.23Q66.30 6.16 66.39 6.15L66.39 6.15L66.43 6.15L66.43 6.15Q66.65 6.15 66.65 6.41L66.65 6.41L66.65 7.28L66.70 7.28L66.70 7.28Q67.19 6.79 67.69 6.50L67.69 6.50L67.69 6.50Q68.19 6.22 68.60 6.22L68.60 6.22L68.60 6.22Q69.06 6.22 69.34 6.56L69.34 6.56L69.34 6.56Q69.61 6.90 69.61 7.35L69.61 7.35L69.61 7.35Q69.61 7.74 69.37 8.05L69.37 8.05L69.37 8.05Q69.13 8.36 68.71 8.36L68.71 8.36L68.71 8.36Q68.52 8.36 68.37 8.27L68.37 8.27L68.37 8.27Q68.22 8.19 68.21 8.13L68.21 8.13L68.21 8.13Q68.22 8.11 68.35 7.96L68.35 7.96L68.35 7.96Q68.47 7.81 68.47 7.62L68.47 7.62L68.47 7.62Q68.47 7.36 68.34 7.21L68.34 7.21L68.34 7.21Q68.21 7.06 67.98 7.06L67.98 7.06L67.98 7.06Q67.75 7.06 67.38 7.29L67.38 7.29L67.38 7.29Q67.02 7.52 66.67 7.87L66.67 7.87L66.67 11.28L66.67 11.28Q66.67 11.65 66.70 11.82L66.70 11.82L66.70 11.82Q66.72 11.98 66.88 12.11L66.88 12.11L66.88 12.11Q67.03 12.24 67.40 12.24L67.40 12.24L67.48 12.24L67.48 12.24Q67.59 12.24 67.65 12.28L67.65 12.28L67.65 12.28Q67.70 12.32 67.72 12.49L67.72 12.49L67.72 12.49Q67.72 12.60 67.66 12.68L67.66 12.68L67.66 12.68Q67.61 12.77 67.49 12.77L67.49 12.77L67.49 12.77Q66.68 12.73 66.02 12.73L66.02 12.73L66.02 12.73Q65.39 12.73 64.57 12.77L64.57 12.77ZM73.68 12.89L73.68 12.89Q72.63 12.89 71.90 12.45L71.90 12.45L71.90 12.45Q71.16 12.00 70.78 11.23L70.78 11.23L70.78 11.23Q70.41 10.46 70.41 9.52L70.41 9.52L70.41 9.52Q70.41 8.69 70.79 7.93L70.79 7.93L70.79 7.93Q71.18 7.17 71.89 6.69L71.89 6.69L71.89 6.69Q72.60 6.22 73.53 6.22L73.53 6.22L73.53 6.22Q74.77 6.22 75.45 6.85L75.45 6.85L75.45 6.85Q76.12 7.49 76.22 8.57L76.22 8.57L76.22 8.57Q76.22 9.03 75.96 9.20L75.96 9.20L75.96 9.20Q75.71 9.37 75.24 9.37L75.24 9.37L71.83 9.37L71.83 9.37Q71.83 10.67 72.37 11.43L72.37 11.43L72.37 11.43Q72.91 12.19 74.05 12.19L74.05 12.19L74.05 12.19Q74.65 12.19 75.07 11.94L75.07 11.94L75.07 11.94Q75.49 11.68 75.87 11.06L75.87 11.06L75.87 11.06Q75.94 10.99 76.01 10.99L76.01 10.99L76.01 10.99Q76.10 10.99 76.17 11.05L76.17 11.05L76.17 11.05Q76.31 11.13 76.31 11.30L76.31 11.30L76.31 11.30Q76.31 11.38 76.29 11.42L76.29 11.42L76.29 11.42Q75.85 12.12 75.19 12.51L75.19 12.51L75.19 12.51Q74.52 12.89 73.68 12.89L73.68 12.89ZM71.83 8.83L74.12 8.83L74.12 8.83Q74.83 8.83 74.87 8.25L74.87 8.25L74.87 8.25Q74.87 7.60 74.52 7.15L74.52 7.15L74.52 7.15Q74.17 6.71 73.53 6.71L73.53 6.71L73.53 6.71Q72.81 6.71 72.35 7.27L72.35 7.27L72.35 7.27Q71.89 7.84 71.83 8.83L71.83 8.83ZM77.55 12.77L77.55 12.77Q77.45 12.77 77.39 12.68L77.39 12.68L77.39 12.68Q77.32 12.60 77.32 12.49L77.32 12.49L77.32 12.49Q77.34 12.31 77.41 12.27L77.41 12.27L77.41 12.27Q77.48 12.24 77.66 12.24L77.66 12.24L77.66 12.24Q78.02 12.24 78.18 12.11L78.18 12.11L78.18 12.11Q78.33 11.98 78.35 11.82L78.35 11.82L78.35 11.82Q78.37 11.65 78.37 11.28L78.37 11.28L78.37 8.08L78.37 8.08Q78.37 7.71 78.35 7.55L78.35 7.55L78.35 7.55Q78.33 7.38 78.18 7.25L78.18 7.25L78.18 7.25Q78.02 7.13 77.66 7.13L77.66 7.13L77.66 7.13Q77.49 7.13 77.41 7.08L77.41 7.08L77.41 7.08Q77.32 7.03 77.32 6.85L77.32 6.85L77.32 6.85Q77.32 6.76 77.38 6.69L77.38 6.69L77.38 6.69Q77.43 6.61 77.55 6.59L77.55 6.59L77.55 6.59Q78.46 6.45 79.04 6.23L79.04 6.23L79.04 6.23Q79.28 6.16 79.37 6.15L79.37 6.15L79.41 6.15L79.41 6.15Q79.63 6.15 79.63 6.41L79.63 6.41L79.63 7.28L79.67 7.28L79.67 7.28Q80.16 6.79 80.67 6.50L80.67 6.50L80.67 6.50Q81.17 6.22 81.58 6.22L81.58 6.22L81.58 6.22Q82.04 6.22 82.31 6.56L82.31 6.56L82.31 6.56Q82.59 6.90 82.59 7.35L82.59 7.35L82.59 7.35Q82.59 7.74 82.35 8.05L82.35 8.05L82.35 8.05Q82.11 8.36 81.69 8.36L81.69 8.36L81.69 8.36Q81.49 8.36 81.35 8.27L81.35 8.27L81.35 8.27Q81.20 8.19 81.19 8.13L81.19 8.13L81.19 8.13Q81.20 8.11 81.33 7.96L81.33 7.96L81.33 7.96Q81.45 7.81 81.45 7.62L81.45 7.62L81.45 7.62Q81.45 7.36 81.32 7.21L81.32 7.21L81.32 7.21Q81.19 7.06 80.96 7.06L80.96 7.06L80.96 7.06Q80.72 7.06 80.36 7.29L80.36 7.29L80.36 7.29Q80.00 7.52 79.65 7.87L79.65 7.87L79.65 11.28L79.65 11.28Q79.65 11.65 79.67 11.82L79.67 11.82L79.67 11.82Q79.70 11.98 79.86 12.11L79.86 12.11L79.86 12.11Q80.01 12.24 80.37 12.24L80.37 12.24L80.46 12.24L80.46 12.24Q80.57 12.24 80.63 12.28L80.63 12.28L80.63 12.28Q80.68 12.32 80.70 12.49L80.70 12.49L80.70 12.49Q80.70 12.60 80.64 12.68L80.64 12.68L80.64 12.68Q80.58 12.77 80.47 12.77L80.47 12.77L80.47 12.77Q79.66 12.73 79.00 12.73L79.00 12.73L79.00 12.73Q78.37 12.73 77.55 12.77L77.55 12.77Z"></path></g><defs data-v-fde0c5aa=""><!----></defs><g data-v-fde0c5aa="" id="f74545ad-d2a1-45ed-832d-4601457a618c" stroke="none" fill="#CC8231" transform="matrix(0.42332597361798174,0,0,0.42332597361798174,37.971239330849336,129.04722053751445)"><switch><g><path d="M14.1 44.5c.6.3 1.2.4 1.8.4 1.4 0 2.7-.7 3.4-2l4.1-7.7c.4-.8 1-1.4 1.8-1.9.3-.2.5-.3.8-.5l-2.4 10.8c-.8 3.5.9 6.9 4.1 8.4l-7.4 24.8v.2l4.7.6h.2c.4 0 .7-.2 1-.4l4.7-5 5-16.9 5.8 2.3c.2.1.3.2.3.4l1.6 9.7h8.9l-1.8-11.1c-.5-3.2-2.7-5.9-5.7-7.1l-6.6-2.6 3.6-12 .9 1.2c1.4 2.1 3.7 3.5 6.2 3.9l7 1.1 3 22.9 3-1.9-2.8-21.4c1-.6 1.7-1.5 1.8-2.7.3-1.9-.9-3.7-2.7-4.2l-.3-2c-.1-.9-.9-1.5-1.8-1.4-.9.1-1.5.9-1.4 1.8l.2 1.1-5.1-.8c-.4-.1-.8-.3-1.1-.7-6.5-9.5-7.8-10-9.7-10.1l-6.3-.4c-1.2-.1-2.3-.2-11.7 5.4-2 1.2-3.6 2.9-4.7 4.9l-4.1 7.7c-.8 1.9-.1 4.2 1.7 5.2z"></path><ellipse transform="rotate(-83.788 37.277 10.982)" cx="37.3" cy="11" rx="8.5" ry="8.5"></ellipse><path d="M93.8 90.2L80.9 77.7c-.2-.2-.4-.5-.6-.7l-7.9-12c-1.6-2.4-4.8-3.1-7.2-1.6l-11.4 7-15.7.1c-1.2 0-2.3.5-3.1 1.3l-7 7.3c-.9 1-2.3 1.5-3.6 1.3L15 79.1c-1.7-.2-3.4.6-4.3 2.2l-5.4 9.8c-1.5 2.8.5 6.3 3.7 6.3h81.6c1.6 0 3.2-.8 3.9-2.2 1-1.7.6-3.7-.7-5z"></path></g></switch></g><!----></svg>